<?xml version="1.0" encoding="UTF-8" standalone="no"?>
<!-- Created with Inkscape (http://www.inkscape.org/) -->

<svg
   width="512"
   height="512"
   viewBox="0 0 512 512"
   version="1.1"
   id="svg1"
   xml:space="preserve"
   inkscape:version="1.4.2 (ebf0e940d0, 2025-05-08)"
   sodipodi:docname="logo.svg"
   inkscape:export-filename="logo.png"
   inkscape:export-xdpi="96"
   inkscape:export-ydpi="96"
   xmlns:inkscape="http://www.inkscape.org/namespaces/inkscape"
   xmlns:sodipodi="http://sodipodi.sourceforge.net/DTD/sodipodi-0.dtd"
   xmlns="http://www.w3.org/2000/svg"
   xmlns:svg="http://www.w3.org/2000/svg"><sodipodi:namedview
     id="namedview1"
     pagecolor="#505050"
     bordercolor="#eeeeee"
     borderopacity="1"
     inkscape:showpageshadow="0"
     inkscape:pageopacity="0"
     inkscape:pagecheckerboard="0"
     inkscape:deskcolor="#505050"
     inkscape:document-units="px"
     showguides="false"
     inkscape:zoom="0.33972388"
     inkscape:cx="662.30257"
     inkscape:cy="7.3589175"
     inkscape:window-width="1920"
     inkscape:window-height="1000"
     inkscape:window-x="0"
     inkscape:window-y="0"
     inkscape:window-maximized="1"
     inkscape:current-layer="layer1" /><defs
     id="defs1"><rect
       x="19.418458"
       y="17.476612"
       width="471.22124"
       height="477.04678"
       id="rect1" /></defs><g
     inkscape:label="Layer 1"
     inkscape:groupmode="layer"
     id="layer1"><rect
       style="font-variation-settings:normal;opacity:1;vector-effect:none;fill:#ffffff;fill-opacity:1;fill-rule:evenodd;stroke-width:1;stroke-linecap:butt;stroke-linejoin:miter;stroke-miterlimit:4;stroke-dasharray:none;stroke-dashoffset:0;stroke-opacity:1;-inkscape-stroke:none;stop-color:#000000;stop-opacity:1"
       id="rect3"
       width="509.73483"
       height="509.73483"
       x="0"
       y="1.0776634"
       ry="70"
       rx="70" /><path
       style="fill:#3172c3;stroke:none;stroke-width:1"
       d="m 272.32547,49.014387 c -3.98458,1.98408 -7.0476,6.448728 -10.26484,9.445673 -7.23001,6.734904 -14.27028,13.602672 -21.26287,20.595264 -22.86324,22.863256 -45.25177,47.300606 -69.65422,68.498956 -8.25999,7.17544 -15.72895,15.41429 -23.46247,23.15133 -2.5896,2.59076 -7.28902,5.99619 -6.35159,10.2326 0.74717,3.37665 4.22911,3.65557 7.08479,3.69541 7.76435,0.10824 16.52536,1.05594 24.19568,-0.1539 8.72049,-1.37546 17.48438,-14.42311 23.46246,-20.37236 17.87198,-17.7858 36.42585,-34.96001 54.25698,-52.79115 l 18.33005,-18.329462 c 1.74795,-1.73862 4.46935,-5.442984 7.33203,-4.794672 6.54758,1.48278 14.72634,13.729174 19.79646,18.201074 17.0607,15.04769 33.03643,32.09388 49.12454,48.182 5.03608,5.03606 16.10306,12.51844 17.42941,19.79646 2.75129,15.09746 0.16746,33.02736 0.16746,48.39134 0,4.85894 -1.71786,13.7067 0.44239,18.09701 1.1574,2.35215 4.7627,1.63422 6.88964,1.72832 5.60175,0.24783 16.59607,3.574 21.67809,0.99514 3.12703,-1.5868 1.78437,-9.13657 1.78437,-12.02203 V 206.6325 c 0,-3.28266 -0.80579,-7.86429 0.44241,-10.95501 2.15316,-5.33148 15.39586,-2.94414 20.08725,-2.97641 2.37964,-0.0163 6.10204,0.0608 6.72216,-2.97523 0.58257,-2.85221 -2.78384,-5.53074 -4.52538,-7.28844 -5.47072,-5.52138 -11.35532,-10.62551 -16.86083,-16.13103 C 376.43426,143.57121 352.98137,121.58471 330.24843,98.85178 316.81067,85.414004 302.70395,72.610184 289.1891,59.256044 285.23919,55.353111 278.91175,45.734799 272.32547,49.014387 m -26.31552,97.306593 c -4.64043,1.99572 -4.73866,21.7358 -2.14814,25.61795 1.26168,1.89074 3.73631,1.68511 5.73438,1.6989 5.36718,0.0371 15.46082,1.93768 20.29656,-0.44183 2.15553,-1.06064 1.69544,-4.17398 1.6995,-6.15642 0.0108,-4.76594 1.99906,-15.47918 -0.75355,-19.47849 -2.47622,-3.59772 -21.02233,-2.87715 -24.82875,-1.24011 m 35.22255,0 c -4.52649,2.04768 -2.31014,15.74331 -2.30822,19.9854 8e-4,1.78106 -0.45745,4.55781 0.75356,6.05457 1.28745,1.59125 4.04013,1.26735 5.84526,1.27688 5.22719,0.0275 14.11415,1.69006 18.8958,-0.54368 4.01095,-1.87369 3.92761,-22.38447 1.19145,-25.53306 -3.0015,-3.45389 -20.35178,-3.06138 -24.37785,-1.24011 M 67.028826,255.02386 v 1.4664 c 35.004284,2.76261 70.353284,-3.21697 99.715514,-23.48118 21.00327,-14.49529 38.07687,-37.65556 62.32218,-46.85817 27.11629,-10.29231 52.79056,6.84482 52.79056,35.87884 h -0.7332 c -6.54201,-12.60938 -24.37481,-14.53323 -34.39206,-4.99664 -17.51989,16.67924 -9.71104,47.28552 12.39599,54.85216 8.80602,3.01403 17.20046,2.93505 26.39529,2.93505 v 0.7332 c -25.55826,6.0567 -58.92879,27.04837 -79.97449,-1.4664 -2.81617,-3.81562 -4.74308,-7.8541 -5.81017,-12.46444 h -0.73321 c 0.18931,22.86928 24.29398,34.49505 44.72534,32.05155 30.09709,-3.59946 56.46204,-20.98379 85.05145,-29.83329 14.1726,-4.38691 29.85183,-7.90506 44.72535,-8.08106 7.94211,-0.094 15.60216,1.85838 23.46247,2.19678 -4.69139,-8.72203 -26.90782,-6.0486 -35.19371,-5.25691 -13.41768,1.28211 -26.66504,3.45769 -39.59293,7.47518 -16.78793,5.21705 -32.47511,12.26105 -50.59095,10.03628 -19.01016,-2.33466 -34.28908,-16.99557 -28.2724,-37.18341 6.87345,-23.06263 35.54181,-16.82357 35.60443,5.86561 10.76961,-5.63417 10.26482,-19.6155 10.26482,-30.06129 3.96647,0 13.32197,1.71996 16.31939,-1.27746 1.51618,-1.51618 1.26655,-4.09751 1.27688,-6.05457 0.0242,-4.60363 2.24178,-17.67459 -2.30763,-20.29659 -5.63103,-3.24536 -27.88245,-3.29834 -25.55346,6.36574 -9.55675,-4.87747 -16.68259,-10.52496 -27.86169,-11.60678 -37.7947,-3.65741 -64.61014,38.40541 -93.11668,56.55562 -26.94346,17.15497 -59.475399,22.50578 -90.917084,22.50578 m 192.098984,22.72926 v -0.7332 c -11.78968,-0.007 -25.26867,-2.71791 -33.59208,-11.7601 -16.05405,-17.44035 -5.89229,-46.14801 14.52883,-54.96131 -9.14623,9.17148 -15.42693,22.11082 -10.99804,35.19371 h 0.73321 c 0,-11.83738 2.2436,-24.15003 11.12532,-32.85831 3.14194,-3.08058 7.3061,-4.3368 10.87073,-6.7346 -15.44017,-4.56399 -30.13491,7.6122 -35.47598,21.26287 -8.12767,20.77265 -0.0409,45.92921 23.74476,50.39973 6.12048,1.15032 12.96267,1.64365 19.06325,0.19121 m -18.33005,-68.18781 -0.7332,0.7332 0.7332,-0.7332 m -122.44479,56.45658 v 1.4664 c 27.0731,-0.0178 51.04794,-14.37952 71.12063,-31.22671 5.85521,-4.91433 12.7977,-9.74709 17.59686,-15.69824 -11.49819,2.07507 -23.01993,15.29291 -32.26091,22.08092 -15.74576,11.5662 -36.69958,21.80533 -56.45658,23.37763 m 161.3045,27.12848 v 0.73321 c 8.67278,2.18545 21.46729,-5.12575 29.32809,-8.48956 17.15697,-7.34178 34.00938,-13.49067 52.79057,-14.97293 v -1.46638 c -15.0809,-0.12489 -28.36303,0.85545 -42.52573,6.91224 -12.82669,5.48542 -25.58261,15.21427 -39.59293,17.28342 m -165.70369,109.98033 -13.19765,0.7332 c -1.435851,9.76626 -5.475963,22.34818 2.35633,30.71758 4.36306,4.66226 11.43179,5.90334 17.44013,6.95803 16.56006,2.90695 49.97702,5.4813 58.65619,-12.74672 7.2383,12.2145 31.42281,21.87094 39.59291,4.39921 11.12656,11.09471 23.17266,11.04739 34.4605,0 4.79031,10.24406 21.40532,12.03903 29.19232,4.26343 8.66297,-8.65025 9.67026,-25.73932 3.09347,-35.79059 -9.27969,-14.18208 -26.2215,-7.40318 -34.17139,3.66547 -2.83172,3.94263 -5.46618,11.66447 -10.58165,12.96458 -3.69697,0.93951 -9.51241,0.49244 -11.18417,-3.50195 -1.60921,-3.84493 -0.54425,-9.75477 -0.54425,-13.86184 v -30.79449 l -18.33006,0.7332 c 2.63843,11.0819 -0.22872,24.46869 0.30323,35.92692 0.18682,4.02379 0.88534,9.24817 -3.31524,11.59996 -1.72872,0.96785 -3.87032,0.8745 -5.7864,0.86106 -15.41435,-0.108 -12.97894,-19.08195 -15.40744,-30.0579 -0.81577,-3.6869 -4.48692,-9.44418 -3.70561,-13.12915 0.8251,-3.89156 8.68495,-6.89213 11.78103,-8.83011 10.70247,-6.69944 27.36229,-12.6669 35.69382,-22.18672 4.08655,-4.66942 1.69948,-17.37238 1.69948,-23.30861 -16.73202,6.33264 -34.07905,19.80796 -49.12455,29.58097 -6.16762,4.00626 -12.80074,8.3311 -14.73589,15.87758 -1.25234,4.88372 -2.88435,11.12704 -1.73967,16.13043 2.07985,9.09084 13.20833,24.33057 4.64646,32.89624 -3.85958,3.86131 -9.49561,3.76357 -14.56617,3.76388 h -27.12849 c -4.40389,-0.007 -9.53327,-0.11844 -12.94815,-3.32375 -4.04283,-3.79471 -2.48938,-8.67259 -2.44909,-13.53991 m 299.87971,-10.99802 c 1.1864,6.67641 7.21338,13.58304 6.46076,20.52684 -0.50479,4.65711 -5.90326,6.29111 -9.31435,3.43577 -4.48408,-3.75354 -5.13507,-11.49549 -7.41124,-16.63059 l -12.46443,4.3992 c 0.79272,3.32967 1.69408,8.5212 -0.0203,11.69106 -2.94846,5.4514 -9.15974,2.86747 -11.64526,-1.42962 -2.50526,-4.33129 -1.16599,-9.27538 -0.79882,-13.92744 -12.55107,3.58801 -24.02132,9.69058 -37.3933,10.26483 -0.38334,4.85689 -4.04524,14.42231 -1.96932,18.86188 1.85368,3.96432 11.95696,6.4549 15.90016,7.53341 -5.40702,10.32971 -29.84784,14.47375 -36.24088,2.90394 -4.0063,-7.25036 0.77079,-17.40267 1.78038,-24.90001 l -8.06523,-4.39922 c -4.60262,7.52025 -9.29982,15.3643 -10.78869,24.19568 -1.09336,6.48533 -1.40908,12.95303 1.4975,19.06325 9.6628,20.31307 42.65189,17.27769 56.88316,4.17859 9.0816,-8.35915 9.01988,-19.31664 8.1314,-30.57386 h 0.7332 c 1.49084,16.96836 23.92202,20.75695 30.79448,5.13241 11.32727,12.95737 28.63401,12.9269 35.28425,-5.13241 4.99656,-13.56855 1.96561,-31.11027 -1.55693,-44.72535 l -19.79647,9.53164 m -155.43887,27.86168 c 0.80168,-2.11448 1.79561,-4.06591 3.31299,-5.78587 10.79585,-12.23692 23.49086,14.72849 6.21864,9.18883 -3.22246,-1.03357 -6.26422,-2.50928 -9.53163,-3.40296 z"
       id="path3" /></g></svg>
